HIERARCHY
ROOT hip
{
	OFFSET 0.000000 0.000000 0.000000 
	CHANNELS 6 Xposition Yposition Zposition Xrotation Zrotation Yrotation
	JOINT abdomen
	{
		OFFSET 0.000000 3.402643 0.000000 
		CHANNELS 3 Xrotation Zrotation Yrotation
		JOINT chest
		{
			OFFSET 0.000000 8.438565 -0.680529 
			CHANNELS 3 Xrotation Zrotation Yrotation
			JOINT neck
			{
				OFFSET 0.000000 10.207942 -0.272212 
				CHANNELS 3 Xrotation Zrotation Yrotation
				JOINT head
				{
					OFFSET 0.000000 3.130431 0.000000 
					CHANNELS 3 Xrotation Zrotation Yrotation
					End Site
					{
						OFFSET 0.000000 3.130435 0.000000 
					}
				}
			}
			JOINT lCollar
			{
				OFFSET 3.470700 6.669187 -0.816635 
				CHANNELS 3 Yrotation Zrotation Xrotation
				JOINT lShldr
				{
					OFFSET 3.198488 0.000000 0.000000 
					CHANNELS 3 Zrotation Yrotation Xrotation
					JOINT lForeArm
					{
						OFFSET 10.139888 0.000000 0.000000 
						CHANNELS 3 Yrotation Zrotation Xrotation
						JOINT lHand
						{
							OFFSET 8.370511 0.000000 0.000000 
							CHANNELS 3 Zrotation Yrotation Xrotation
							End Site
							{
								OFFSET 4.083176 0.000000 0.000000 
							}
						}
					}
				}
			}
			JOINT rCollar
			{
				OFFSET -3.470700 6.669187 -0.816635 
				CHANNELS 3 Yrotation Zrotation Xrotation
				JOINT rShldr
				{
					OFFSET -3.198488 0.000000 0.000000 
					CHANNELS 3 Zrotation Yrotation Xrotation
					JOINT rForeArm
					{
						OFFSET -10.139888 0.000000 0.000000 
						CHANNELS 3 Yrotation Zrotation Xrotation
						JOINT rHand
						{
							OFFSET -8.370511 0.000000 0.000000 
							CHANNELS 3 Zrotation Yrotation Xrotation
							End Site
							{
								OFFSET -4.083176 0.000000 0.000000 
							}
						}
					}
				}
			}
		}
	}
	JOINT lThigh
	{
		OFFSET 5.308129 -1.633274 1.361059 
		CHANNELS 3 Xrotation Zrotation Yrotation
		JOINT lShin
		{
			OFFSET -2.041588 -20.007561 0.000000 
			CHANNELS 3 Xrotation Zrotation Yrotation
			JOINT lFoot
			{
				OFFSET 0.000000 -19.190928 -1.224953 
				CHANNELS 3 Xrotation Yrotation Zrotation
				End Site
				{
					OFFSET 0.000000 -2.449906 4.627600 
				}
			}
		}
	}
	JOINT rThigh
	{
		OFFSET -5.308129 -1.633274 1.361059 
		CHANNELS 3 Xrotation Zrotation Yrotation
		JOINT rShin
		{
			OFFSET 2.041588 -20.007561 0.000000 
			CHANNELS 3 Xrotation Zrotation Yrotation
			JOINT rFoot
			{
				OFFSET 0.000000 -19.190928 -1.224953 
				CHANNELS 3 Xrotation Yrotation Zrotation
				End Site
				{
					OFFSET 0.000000 -2.449906 4.627600 
				}
			}
		}
	}
}
MOTION
Frames: 14
Frame Time: 0.011111
-3.848211 48.135433 23.542871 -13.894801 -3.359380 138.547165 61.544353 3.786117 -10.392677 -21.472788 2.461178 -1.717031 -14.607450 -3.336294 11.172526 -20.882435 11.970823 22.639116 2.979737 -14.500075 1.558499 -77.224495 -64.646606 58.985725 -64.746819 9.452210 14.561704 8.524705 12.647240 -3.255262 -4.165172 9.834183 2.072487 75.259918 50.053162 43.583469 74.131660 -8.468153 19.179770 -8.534408 -12.637552 68.949081 -45.026409 30.531954 25.757792 60.678726 -2.651819 -8.198555 -18.348276 1.131002 -2.463976 -22.157240 -19.901360 -4.823542 27.575396 5.438997 4.507679 -16.036737 -9.126704 0.593603 
-3.817207 48.102074 23.479853 -14.337619 -3.159233 139.114151 60.780884 3.988818 -9.907019 -21.463106 2.521723 -1.690891 -14.541906 -3.473373 11.124003 -20.983173 11.673329 22.552551 2.979737 -14.500075 1.558499 -76.887077 -63.971210 58.906570 -65.546257 9.446476 14.943093 8.524705 12.647240 -3.069715 -4.165172 9.834183 2.072487 74.575531 49.477592 43.805634 74.671921 -8.340617 19.470131 -8.534408 -12.637552 70.072121 -45.682987 30.985258 26.172417 61.030334 -2.612933 -8.233575 -18.044016 1.285498 -2.442774 -21.820648 -19.720715 -5.597244 27.325129 5.447689 4.478073 -16.179623 -8.904958 0.628051 
-3.572882 48.163071 23.436041 -13.834654 -2.259638 140.297714 61.251465 4.028155 -9.816059 -21.619761 2.754703 -1.654013 -13.837193 -3.042117 10.879273 -21.469954 11.179134 22.343060 2.979737 -14.500075 1.558499 -76.142380 -63.180286 58.457554 -66.164452 9.433626 15.232239 8.524705 12.647240 -3.919325 -4.165172 9.834183 2.072487 74.336472 48.568321 44.158356 74.946556 -8.272446 19.610985 -8.534408 -12.637552 69.964699 -44.703362 31.301411 26.965014 61.245403 -2.594075 -8.249177 -17.751930 1.135880 -2.506707 -19.653299 -19.330149 -6.297696 27.172289 5.467918 4.458901 -16.849031 -9.634136 0.306663 
-3.534801 48.111507 23.347748 -14.173493 -1.977584 140.826813 60.495415 4.034132 -9.106633 -21.785542 2.112559 -1.531911 -13.886317 -2.822526 10.723133 -21.042969 11.097160 22.100437 2.979737 -14.500075 1.558499 -75.020386 -62.321678 58.367168 -66.938538 9.400348 15.597936 8.524705 12.647240 -4.280653 -4.165172 9.834183 2.072487 74.417763 47.575977 44.285069 75.625679 -8.095883 19.977682 -8.534408 -12.637552 70.355324 -45.181282 31.641743 27.545473 61.616535 -2.534726 -8.283827 -18.139072 1.793154 -2.262440 -19.214798 -19.145475 -7.304203 27.023176 5.467462 4.435979 -16.889376 -9.326839 0.365469 
-3.485262 48.051186 23.246311 -14.388062 -1.670330 141.625687 59.837723 4.209451 -8.651915 -21.844116 1.810895 -1.484626 -13.829025 -2.984113 10.610581 -21.204971 11.236748 21.824465 2.979737 -14.500075 1.558499 -73.902657 -61.345295 59.148899 -68.338257 9.316775 16.277763 8.524705 12.647240 -1.360731 -4.165172 9.834183 2.072487 74.177078 46.784389 44.792980 76.167374 -7.940408 20.268240 -8.534408 -12.637552 70.677597 -45.517422 31.855183 28.229872 62.036579 -2.505310 -8.318935 -18.569635 2.355019 -2.044862 -18.463785 -19.048588 -8.489323 26.893400 5.468345 4.423974 -16.969440 -9.242685 0.372840 
-3.262842 48.069042 23.156668 -13.974337 -0.889858 142.904694 59.889885 4.264273 -8.597022 -21.805222 2.165285 -1.467649 -13.770036 -3.114693 10.499662 -21.148882 11.253454 21.573900 2.979737 -14.500075 1.558499 -73.088478 -60.546165 59.224850 -69.708580 9.186698 16.933250 8.524705 12.647240 -0.784559 -4.165172 9.834183 2.072487 73.675674 46.102554 45.468227 76.735962 -7.767354 20.581686 -8.534408 -12.637552 71.263527 -44.803135 32.037495 29.162540 62.456276 -2.438199 -8.361391 -18.967474 2.548645 -1.959205 -16.434490 -18.699482 -9.404170 26.682924 5.477438 4.388185 -17.485437 -9.959586 0.086194 
-3.296541 48.000298 23.023216 -14.647190 -0.709043 143.559418 58.562508 4.460202 -7.711608 -21.707563 1.685562 -1.354553 -14.531985 -3.533812 10.445967 -20.324171 11.389757 21.223463 2.979737 -14.500075 1.558499 -72.390671 -59.831745 59.486576 -71.042816 9.024629 17.595268 8.524705 12.647240 -0.354872 -4.165172 9.834183 2.072487 73.250946 45.348679 45.894756 77.503532 -7.508882 21.008640 -8.534408 -12.637552 71.761581 -45.926212 32.193829 29.589653 62.984009 -2.388292 -8.392875 -19.865358 3.755519 -1.450315 -16.198027 -18.481089 -10.492480 26.331009 5.496698 4.331754 -17.230814 -9.857549 0.167888 
-3.271603 47.957500 22.874264 -14.831509 -0.307725 144.580658 57.804615 4.649929 -7.044607 -21.707806 1.291048 -1.250810 -13.838491 -2.589290 9.998912 -20.584030 10.364756 20.857380 2.979737 -14.500075 1.558499 -71.469864 -59.074348 59.785419 -72.541031 8.782898 18.351637 8.524705 12.647240 0.231066 -4.165172 9.834183 2.072487 73.059357 44.457062 46.120014 78.369926 -7.191190 21.505043 -8.534408 -12.637552 71.888535 -46.285107 32.051273 30.328875 63.413109 -2.331008 -8.440840 -20.920588 4.695695 -0.981630 -15.135352 -18.288465 -11.532773 25.887934 5.517453 4.286256 -16.953037 -10.395642 0.101879 
-2.927863 48.007710 22.736767 -13.982147 0.814492 146.420547 58.163303 4.630656 -7.162862 -21.658894 1.801383 -1.242992 -15.238149 -3.216203 10.173681 -18.799376 10.908671 20.744940 2.979737 -14.500075 1.558499 -70.456276 -58.250755 59.870182 -74.097298 8.469492 19.154978 8.524705 12.647240 1.012316 -4.165172 9.834183 2.072487 72.908249 43.416912 46.451057 79.306122 -6.806760 22.056662 -8.534408 -12.637552 72.249855 -44.754402 32.046940 31.604399 63.618042 -2.301759 -8.458739 -21.500395 4.583860 -0.913689 -12.225086 -17.642899 -12.097634 25.465355 5.536458 4.223465 -17.419436 -11.969416 -0.397640 
-2.810923 47.969967 22.568604 -13.820129 1.578749 147.716812 57.763107 4.767645 -6.728820 -21.746906 1.862401 -1.181351 -15.016762 -2.648579 10.000439 -18.278469 10.091075 20.685280 2.979737 -14.500075 1.558499 -69.686356 -57.488918 59.984417 -75.600304 8.093997 19.954458 8.524705 12.647240 1.510362 -4.165172 9.834183 2.072487 72.553101 42.434910 46.823593 80.320671 -6.333753 22.686241 -8.534408 -12.637552 72.738144 -44.353111 31.975739 32.553188 63.833569 -2.282137 -8.454170 -22.309443 5.129864 -0.584453 -10.700750 -17.219667 -12.964923 25.171696 5.555802 4.191457 -17.645060 -12.354107 -0.532977 
-2.694658 47.956825 22.386286 -13.448291 2.110152 148.945007 57.368351 4.488623 -6.380399 -21.756857 1.977693 -1.061994 -15.273522 -2.417008 9.821324 -17.439865 9.533975 20.394793 2.979737 -14.500075 1.558499 -68.773315 -56.896843 60.377075 -77.147278 7.626275 20.797625 8.524705 12.647240 1.774034 -4.165172 9.834183 2.072487 72.199554 41.560463 46.988426 81.358528 -5.782760 23.365976 -8.534408 -12.637552 72.943214 -43.514400 31.607479 33.903831 63.891510 -2.281389 -8.477503 -23.066885 5.857858 -0.188109 -9.267196 -17.088474 -13.654424 25.040310 5.560588 4.190748 -18.197447 -12.472765 -0.713591 
-2.568957 47.935593 22.182400 -13.029510 2.542128 150.274261 56.850548 4.091105 -6.049667 -21.747246 1.996536 -0.925864 -14.218575 -1.685640 9.229046 -18.013222 8.833134 19.631809 2.979737 -14.500075 1.558499 -67.658073 -56.397659 60.854977 -78.673683 7.064382 21.668335 8.524705 12.647240 1.979112 -4.165172 9.834183 2.072487 71.874756 40.635815 47.021492 82.362106 -5.167869 24.077368 -8.534408 -12.637552 73.382668 -42.546940 31.067545 35.373287 63.862194 -2.282320 -8.475776 -23.896019 6.322990 0.157950 -7.968556 -17.096926 -14.279731 25.161398 5.555688 4.200271 -18.688885 -12.579645 -0.869005 
-2.448648 47.891445 21.960316 -12.755099 3.012630 151.738708 56.136383 3.843112 -5.575768 -21.835281 1.915893 -0.796400 -14.992212 -2.411621 9.067255 -16.512341 9.558022 18.838835 2.979737 -14.500075 1.558499 -66.609108 -55.945240 61.382420 -80.067932 6.450226 22.509144 8.524705 12.647240 1.891222 -4.165172 9.834183 2.072487 71.743874 39.712330 46.887821 83.247803 -4.537411 24.764944 -8.534408 -12.637552 73.949081 -41.830910 30.512415 36.526005 63.735786 -2.306917 -8.452056 -24.870775 6.511873 0.435360 -6.669510 -16.918215 -15.110216 25.435083 5.536236 4.230506 -18.656744 -13.158216 -1.003969 
-2.361364 47.841236 21.716665 -12.575919 3.489709 153.284805 55.315590 3.738369 -5.023569 -21.864660 1.786303 -0.681025 -15.223127 -2.247117 8.715723 -14.980297 9.380601 18.071957 2.979737 -14.500075 1.558499 -65.609245 -55.716015 61.905090 -81.399910 5.754151 23.379839 8.524705 12.647240 1.568956 -4.165172 9.834183 2.072487 71.743927 39.037388 46.692188 84.024826 -3.895377 25.449091 -8.534408 -12.637552 74.056496 -41.191322 29.687159 37.359280 63.394085 -2.339860 -8.425362 -26.072748 6.794498 0.831761 -5.497616 -16.731297 -16.153030 25.885082 5.532009 4.289290 -18.403118 -13.657673 -1.073049 
